<?xml version="1.0" encoding="utf-8"?>
<!-- Svg Vector Icons : http://www.onlinewebfonts.com/icon -->
<!DOCTYPE svg PUBLIC "-//W3C//DTD SVG 1.1//EN" "http://www.w3.org/Graphics/SVG/1.1/DTD/svg11.dtd">
<svg version="1.1" xmlns="http://www.w3.org/2000/svg" xmlns:xlink="http://www.w3.org/1999/xlink" x="0px" y="0px" viewBox="0 0 1000 1000" enable-background="new 0 0 1000 1000" xml:space="preserve">
<metadata> Svg Vector Icons : http://www.onlinewebfonts.com/icon </metadata>
<g><path d="M591.5,27.4c37.7,11.7,58,50.9,61,117.6c2.8,66.8-16.1,110.4-56.6,130.7c-40.7,20.4-72.7,30.5-95.8,30.5c-23.3,0-55.3-11.6-95.8-34.9c-40.7-23.1-59.6-62.3-56.6-117.6c2.8-55.1,21.8-92.8,56.6-113.3C439,20.2,470.9,10,500,10C523.1,10,553.6,15.9,591.5,27.4z M534.8,776.6c-40.7,0-74.1-4.4-100.2-13.1c-26.1-8.7-45.1-24.6-56.6-47.9c-11.7-23.1-16.1-47.9-13.1-74.1c2.8-26.1,11.6-47.9,26.1-65.3c14.4-17.4,31.9-30.5,52.3-39.2c20.3-8.7,36.2-13.1,47.9-13.1c17.4,0,39.2,4.4,65.3,13.1c26.1,8.7,47.9,29.1,65.3,61c17.4,32,26.1,62.5,26.1,91.5c0,29.1-7.3,68.3-21.8,117.6c-14.6,49.3-42.2,90-82.8,122c-40.7,31.9-77,50.8-108.9,56.6c-32,5.7-47.9,5.7-47.9,0c0-5.9,8.7-11.7,26.1-17.4c29-23.3,53.6-47.9,74.1-74.1C507.2,868.1,523.1,828.9,534.8,776.6z"/></g>
</svg>